  0
SECTION
  2
HEADER
  9
$ACADVER
  1
AC1014
  9
$HANDSEED
  5
FFFF
  9
$MEASUREMENT
 70
     1
  0
ENDSEC
  0
SECTION
  2
TABLES
  0
TABLE
  2
VPORT
  5
8
330
0
100
AcDbSymbolTable
 70
     4
  0
VPORT
  5
2E
330
8
100
AcDbSymbolTableRecord
100
AcDbViewportTableRecord
  2
*ACTIVE
 70
     0
 10
0.0
 20
0.0
 11
1.0
 21
1.0
 12
210.0
 22
148.5
 13
0.0
 23
0.0
 14
10.0
 24
10.0
 15
10.0
 25
10.0
 16
0.0
 26
0.0
 36
1.0
 17
0.0
 27
0.0
 37
0.0
 40
341.0
 41
1.24
 42
50.0
 43
0.0
 44
0.0
 50
0.0
 51
0.0
 71
     0
 72
   100
 73
     1
 74
     3
 75
     0
 76
     0
 77
     0
 78
     0
  0
ENDTAB
  0
TABLE
  2
LTYPE
  5
5
330
0
100
AcDbSymbolTable
 70
     1
  0
LTYPE
  5
14
330
5
100
AcDbSymbolTableRecord
100
AcDbLinetypeTableRecord
  2
BYBLOCK
 70
     0
  3

 72
    65
 73
     0
 40
0.0
  0
LTYPE
  5
15
330
5
100
AcDbSymbolTableRecord
100
AcDbLinetypeTableRecord
  2
BYLAYER
 70
     0
  3

 72
    65
 73
     0
 40
0.0
  0
LTYPE
  5
16
330
5
100
AcDbSymbolTableRecord
100
AcDbLinetypeTableRecord
  2
CONTINUOUS
 70
     0
  3
Solid line
 72
    65
 73
     0
 40
0.0
  0
ENDTAB
  0
TABLE
  2
LAYER
  5
2
100
AcDbSymbolTable
 70
4
  0
LAYER
  5
50
100
AcDbSymbolTableRecord
100
AcDbLayerTableRecord
  2
0
 70
0
  6
CONTINUOUS
  0
LAYER
  5
51
100
AcDbSymbolTableRecord
100
AcDbLayerTableRecord
  2
Templates
 70
0
  6
CONTINUOUS
  0
LAYER
  5
52
100
AcDbSymbolTableRecord
100
AcDbLayerTableRecord
  2
Layer_2
 70
0
  6
CONTINUOUS
  0
LAYER
  5
53
100
AcDbSymbolTableRecord
100
AcDbLayerTableRecord
  2
Gates
 70
0
  6
CONTINUOUS
  0
ENDTAB
  0
TABLE
  2
STYLE
  5
3
330
0
100
AcDbSymbolTable
 70
     1
  0
STYLE
  5
11
330
3
100
AcDbSymbolTableRecord
100
AcDbTextStyleTableRecord
  2
STANDARD
 70
     0
 40
0.0
 41
1.0
 50
0.0
 71
     0
 42
2.5
  3
txt
  4

  0
ENDTAB
  0
TABLE
  2
VIEW
  5
6
330
0
100
AcDbSymbolTable
 70
     0
  0
ENDTAB
  0
TABLE
  2
UCS
  5
7
330
0
100
AcDbSymbolTable
 70
     0
  0
ENDTAB
  0
TABLE
  2
APPID
  5
9
330
0
100
AcDbSymbolTable
 70
     2
  0
APPID
  5
12
330
9
100
AcDbSymbolTableRecord
100
AcDbRegAppTableRecord
  2
ACAD
 70
     0
  0
ENDTAB
  0
TABLE
  2
DIMSTYLE
  5
A
330
0
100
AcDbSymbolTable
 70
     1
  0
DIMSTYLE
105
27
330
A
100
AcDbSymbolTableRecord
100
AcDbDimStyleTableRecord
  2
ISO-25
 70
     0
  3

  4

  5

  6

  7

 40
1.0
 41
2.5
 42
0.625
 43
3.75
 44
1.25
 45
0.0
 46
0.0
 47
0.0
 48
0.0
140
2.5
141
2.5
142
0.0
143
0.03937007874016
144
1.0
145
0.0
146
1.0
147
0.625
 71
     0
 72
     0
 73
     0
 74
     0
 75
     0
 76
     0
 77
     1
 78
     8
170
     0
171
     3
172
     1
173
     0
174
     0
175
     0
176
     0
177
     0
178
     0
270
     2
271
     2
272
     2
273
     2
274
     3
340
11
275
     0
280
     0
281
     0
282
     0
283
     0
284
     8
285
     0
286
     0
287
     3
288
     0
  0
ENDTAB
  0
TABLE
  2
BLOCK_RECORD
  5
1
330
0
100
AcDbSymbolTable
 70
     1
  0
BLOCK_RECORD
  5
1F
330
1
100
AcDbSymbolTableRecord
100
AcDbBlockTableRecord
  2
*MODEL_SPACE
  0
BLOCK_RECORD
  5
1B
330
1
100
AcDbSymbolTableRecord
100
AcDbBlockTableRecord
  2
*PAPER_SPACE
  0
ENDTAB
  0
ENDSEC
  0
SECTION
  2
BLOCKS
  0
BLOCK
  5
20
330
1F
100
AcDbEntity
  8
0
100
AcDbBlockBegin
  2
*MODEL_SPACE
 70
     0
 10
0.0
 20
0.0
 30
0.0
  3
*MODEL_SPACE
  1

  0
ENDBLK
  5
21
330
1F
100
AcDbEntity
  8
0
100
AcDbBlockEnd
  0
BLOCK
  5
1C
330
1B
100
AcDbEntity
 67
     1
  8
0
100
AcDbBlockBegin
  2
*PAPER_SPACE
  1

  0
ENDBLK
  5
1D
330
1B
100
AcDbEntity
 67
     1
  8
0
100
AcDbBlockEnd
  0
ENDSEC
  0
SECTION
  2
ENTITIES
  0
SPLINE
  5
100
100
AcDbEntity
  8
Templates
 62
2
100
AcDbSpline
 70
8
 71
3
 72
8
 73
4
 74
0
 40
0
 40
0
 40
0
 40
0
 40
1
 40
1
 40
1
 40
1
 10
17.590476
 20
14.830921
 30
0.0
 10
17.590476
 20
14.029028
 30
0.0
 10
17.173870
 20
13.288049
 30
0.0
 10
16.497590
 20
12.887103
 30
0.0
  0
SPLINE
  5
101
100
AcDbEntity
  8
Templates
 62
2
100
AcDbSpline
 70
8
 71
3
 72
8
 73
4
 74
0
 40
0
 40
0
 40
0
 40
0
 40
1
 40
1
 40
1
 40
1
 10
16.497590
 20
12.887103
 30
0.0
 10
15.821309
 20
12.486157
 30
0.0
 10
14.988097
 20
12.486157
 30
0.0
 10
14.311817
 20
12.887103
 30
0.0
  0
SPLINE
  5
102
100
AcDbEntity
  8
Templates
 62
2
100
AcDbSpline
 70
8
 71
3
 72
8
 73
4
 74
0
 40
0
 40
0
 40
0
 40
0
 40
1
 40
1
 40
1
 40
1
 10
14.311817
 20
12.887103
 30
0.0
 10
13.635536
 20
13.288049
 30
0.0
 10
13.218930
 20
14.029028
 30
0.0
 10
13.218930
 20
14.830921
 30
0.0
  0
SPLINE
  5
103
100
AcDbEntity
  8
Templates
 62
2
100
AcDbSpline
 70
8
 71
3
 72
8
 73
4
 74
0
 40
0
 40
0
 40
0
 40
0
 40
1
 40
1
 40
1
 40
1
 10
13.218930
 20
14.830921
 30
0.0
 10
13.218930
 20
15.632813
 30
0.0
 10
13.635536
 20
16.373792
 30
0.0
 10
14.311817
 20
16.774738
 30
0.0
  0
SPLINE
  5
104
100
AcDbEntity
  8
Templates
 62
2
100
AcDbSpline
 70
8
 71
3
 72
8
 73
4
 74
0
 40
0
 40
0
 40
0
 40
0
 40
1
 40
1
 40
1
 40
1
 10
14.311817
 20
16.774738
 30
0.0
 10
14.988097
 20
17.175684
 30
0.0
 10
15.821309
 20
17.175684
 30
0.0
 10
16.497590
 20
16.774738
 30
0.0
  0
SPLINE
  5
105
100
AcDbEntity
  8
Templates
 62
2
100
AcDbSpline
 70
8
 71
3
 72
8
 73
4
 74
0
 40
0
 40
0
 40
0
 40
0
 40
1
 40
1
 40
1
 40
1
 10
16.497590
 20
16.774738
 30
0.0
 10
17.173870
 20
16.373792
 30
0.0
 10
17.590476
 20
15.632813
 30
0.0
 10
17.590476
 20
14.830921
 30
0.0
  0
LWPOLYLINE
  5
106
100
AcDbEntity
  8
Templates
 62
2
100
AcDbPolyline
 90
4
 70
1
 10
10.920677
 20
17.081054
 30
0.0
 10
15.400954
 20
17.081054
 30
0.0
 10
15.400954
 20
12.600778
 30
0.0
 10
10.920677
 20
12.600778
 30
0.0
  0
LWPOLYLINE
  5
107
100
AcDbEntity
  8
Templates
 62
2
100
AcDbPolyline
 90
1
 70
1
 10
17.590476
 20
14.830921
 30
0.0
  0
LWPOLYLINE
  5
108
100
AcDbEntity
  8
Templates
 62
2
100
AcDbPolyline
 90
4
 70
0
 10
13.160815
 20
17.081056
 30
0.0
 10
13.160815
 20
12.600779
 30
0.0
 10
13.160815
 20
12.600779
 30
0.0
 10
13.160815
 20
12.600779
 30
0.0
  0
SPLINE
  5
109
100
AcDbEntity
  8
Templates
 62
2
100
AcDbSpline
 70
8
 71
3
 72
8
 73
4
 74
0
 40
0
 40
0
 40
0
 40
0
 40
1
 40
1
 40
1
 40
1
 10
11.760728
 20
12.600779
 30
0.0
 10
12.320763
 20
13.440831
 30
0.0
 10
12.320763
 20
13.440831
 30
0.0
 10
12.320763
 20
14.840917
 30
0.0
  0
SPLINE
  5
10a
100
AcDbEntity
  8
Templates
 62
2
100
AcDbSpline
 70
8
 71
3
 72
8
 73
4
 74
0
 40
0
 40
0
 40
0
 40
0
 40
1
 40
1
 40
1
 40
1
 10
12.320763
 20
14.840917
 30
0.0
 10
12.320763
 20
16.241004
 30
0.0
 10
12.320763
 20
16.241004
 30
0.0
 10
11.760728
 20
17.081056
 30
0.0
  0
LWPOLYLINE
  5
10b
100
AcDbEntity
  8
Templates
 62
2
100
AcDbPolyline
 90
3
 70
0
 10
11.760728
 20
17.081056
 30
0.0
 10
11.760728
 20
12.600779
 30
0.0
 10
11.760728
 20
12.600779
 30
0.0
  0
LWPOLYLINE
  5
10c
100
AcDbEntity
  8
Templates
 62
2
100
AcDbPolyline
 90
1
 70
1
 10
11.760728
 20
17.081056
 30
0.0
  0
SPLINE
  5
10d
100
AcDbEntity
  8
Gates
 62
5
100
AcDbSpline
 70
8
 71
3
 72
8
 73
4
 74
0
 40
0
 40
0
 40
0
 40
0
 40
1
 40
1
 40
1
 40
1
 10
12.148172
 20
35.848392
 30
0.0
 10
12.148172
 20
35.748352
 30
0.0
 10
12.094801
 20
35.655910
 30
0.0
 10
12.008163
 20
35.605890
 30
0.0
  0
SPLINE
  5
10e
100
AcDbEntity
  8
Gates
 62
5
100
AcDbSpline
 70
8
 71
3
 72
8
 73
4
 74
0
 40
0
 40
0
 40
0
 40
0
 40
1
 40
1
 40
1
 40
1
 10
12.008163
 20
35.605890
 30
0.0
 10
11.921526
 20
35.555870
 30
0.0
 10
11.814784
 20
35.555870
 30
0.0
 10
11.728146
 20
35.605890
 30
0.0
  0
SPLINE
  5
10f
100
AcDbEntity
  8
Gates
 62
5
100
AcDbSpline
 70
8
 71
3
 72
8
 73
4
 74
0
 40
0
 40
0
 40
0
 40
0
 40
1
 40
1
 40
1
 40
1
 10
11.728146
 20
35.605890
 30
0.0
 10
11.641508
 20
35.655910
 30
0.0
 10
11.588137
 20
35.748352
 30
0.0
 10
11.588137
 20
35.848392
 30
0.0
  0
SPLINE
  5
110
100
AcDbEntity
  8
Gates
 62
5
100
AcDbSpline
 70
8
 71
3
 72
8
 73
4
 74
0
 40
0
 40
0
 40
0
 40
0
 40
1
 40
1
 40
1
 40
1
 10
11.588137
 20
35.848392
 30
0.0
 10
11.588137
 20
35.948433
 30
0.0
 10
11.641508
 20
36.040874
 30
0.0
 10
11.728146
 20
36.090894
 30
0.0
  0
SPLINE
  5
111
100
AcDbEntity
  8
Gates
 62
5
100
AcDbSpline
 70
8
 71
3
 72
8
 73
4
 74
0
 40
0
 40
0
 40
0
 40
0
 40
1
 40
1
 40
1
 40
1
 10
11.728146
 20
36.090894
 30
0.0
 10
11.814784
 20
36.140915
 30
0.0
 10
11.921526
 20
36.140915
 30
0.0
 10
12.008163
 20
36.090894
 30
0.0
  0
SPLINE
  5
112
100
AcDbEntity
  8
Gates
 62
5
100
AcDbSpline
 70
8
 71
3
 72
8
 73
4
 74
0
 40
0
 40
0
 40
0
 40
0
 40
1
 40
1
 40
1
 40
1
 10
12.008163
 20
36.090894
 30
0.0
 10
12.094801
 20
36.040874
 30
0.0
 10
12.148172
 20
35.948433
 30
0.0
 10
12.148172
 20
35.848392
 30
0.0
  0
LWPOLYLINE
  5
113
100
AcDbEntity
  8
Gates
 62
7
100
AcDbPolyline
 90
3
 70
1
 10
7.000433
 20
33.602082
 30
0.0
 10
11.480711
 20
35.842221
 30
0.0
 10
7.000433
 20
38.082360
 30
0.0
  0
LWPOLYLINE
  5
114
100
AcDbEntity
  8
Gates
 62
5
100
AcDbPolyline
 90
1
 70
1
 10
12.148172
 20
35.848392
 30
0.0
  0
LWPOLYLINE
  5
115
100
AcDbEntity
  8
Gates
 62
7
100
AcDbPolyline
 90
2
 70
0
 10
3.080191
 20
35.842221
 30
0.0
 10
7.000433
 20
35.842221
 30
0.0
  0
LWPOLYLINE
  5
116
100
AcDbEntity
  8
Gates
 62
7
100
AcDbPolyline
 90
2
 70
0
 10
12.040746
 20
35.842221
 30
0.0
 10
14.840919
 20
35.842221
 30
0.0
  0
SPLINE
  5
117
100
AcDbEntity
  8
Gates
 62
7
100
AcDbSpline
 70
8
 71
3
 72
8
 73
4
 74
0
 40
0
 40
0
 40
0
 40
0
 40
1
 40
1
 40
1
 40
1
 10
5.040312
 20
16.801039
 30
0.0
 10
5.880365
 20
16.801039
 30
0.0
 10
7.280451
 20
16.241003
 30
0.0
 10
7.280451
 20
14.560899
 30
0.0
  0
SPLINE
  5
118
100
AcDbEntity
  8
Gates
 62
7
100
AcDbSpline
 70
8
 71
3
 72
8
 73
4
 74
0
 40
0
 40
0
 40
0
 40
0
 40
1
 40
1
 40
1
 40
1
 10
7.280451
 20
14.560899
 30
0.0
 10
7.280451
 20
13.160814
 30
0.0
 10
5.880365
 20
12.320762
 30
0.0
 10
5.040312
 20
12.320762
 30
0.0
  0
LWPOLYLINE
  5
119
100
AcDbEntity
  8
Gates
 62
7
100
AcDbPolyline
 90
2
 70
0
 10
1.400087
 20
16.801039
 30
0.0
 10
5.040312
 20
16.801039
 30
0.0
  0
SPLINE
  5
11a
100
AcDbEntity
  8
Gates
 62
7
100
AcDbSpline
 70
8
 71
3
 72
8
 73
4
 74
0
 40
0
 40
0
 40
0
 40
0
 40
1
 40
1
 40
1
 40
1
 10
1.400087
 20
12.320762
 30
0.0
 10
1.960122
 20
13.160814
 30
0.0
 10
1.960122
 20
13.160814
 30
0.0
 10
1.960122
 20
14.560899
 30
0.0
  0
SPLINE
  5
11b
100
AcDbEntity
  8
Gates
 62
7
100
AcDbSpline
 70
8
 71
3
 72
8
 73
4
 74
0
 40
0
 40
0
 40
0
 40
0
 40
1
 40
1
 40
1
 40
1
 10
1.960122
 20
14.560899
 30
0.0
 10
1.960122
 20
15.960987
 30
0.0
 10
1.960122
 20
15.960987
 30
0.0
 10
1.400087
 20
16.801039
 30
0.0
  0
LWPOLYLINE
  5
11c
100
AcDbEntity
  8
Gates
 62
7
100
AcDbPolyline
 90
2
 70
0
 10
5.040312
 20
12.320762
 30
0.0
 10
1.400087
 20
12.320762
 30
0.0
  0
LWPOLYLINE
  5
11d
100
AcDbEntity
  8
Gates
 62
7
100
AcDbPolyline
 90
1
 70
1
 10
1.400087
 20
16.801039
 30
0.0
  0
SPLINE
  5
11e
100
AcDbEntity
  8
Gates
 62
7
100
AcDbSpline
 70
8
 71
3
 72
8
 73
4
 74
0
 40
0
 40
0
 40
0
 40
0
 40
1
 40
1
 40
1
 40
1
 10
29.401821
 20
38.082360
 30
0.0
 10
30.241873
 20
38.082360
 30
0.0
 10
31.641961
 20
37.522325
 30
0.0
 10
31.641958
 20
35.842221
 30
0.0
  0
SPLINE
  5
11f
100
AcDbEntity
  8
Gates
 62
7
100
AcDbSpline
 70
8
 71
3
 72
8
 73
4
 74
0
 40
0
 40
0
 40
0
 40
0
 40
1
 40
1
 40
1
 40
1
 10
31.641958
 20
35.842221
 30
0.0
 10
31.641961
 20
34.442134
 30
0.0
 10
30.241873
 20
33.602082
 30
0.0
 10
29.401821
 20
33.602083
 30
0.0
  0
LWPOLYLINE
  5
120
100
AcDbEntity
  8
Gates
 62
7
100
AcDbPolyline
 90
2
 70
0
 10
25.761593
 20
38.082360
 30
0.0
 10
29.401821
 20
38.082360
 30
0.0
  0
SPLINE
  5
121
100
AcDbEntity
  8
Gates
 62
7
100
AcDbSpline
 70
8
 71
3
 72
8
 73
4
 74
0
 40
0
 40
0
 40
0
 40
0
 40
1
 40
1
 40
1
 40
1
 10
25.761593
 20
33.602083
 30
0.0
 10
26.321628
 20
34.442134
 30
0.0
 10
26.321628
 20
34.442134
 30
0.0
 10
26.321628
 20
35.842221
 30
0.0
  0
SPLINE
  5
122
100
AcDbEntity
  8
Gates
 62
7
100
AcDbSpline
 70
8
 71
3
 72
8
 73
4
 74
0
 40
0
 40
0
 40
0
 40
0
 40
1
 40
1
 40
1
 40
1
 10
26.321628
 20
35.842221
 30
0.0
 10
26.321628
 20
37.242308
 30
0.0
 10
26.321628
 20
37.242308
 30
0.0
 10
25.761593
 20
38.082360
 30
0.0
  0
LWPOLYLINE
  5
123
100
AcDbEntity
  8
Gates
 62
7
100
AcDbPolyline
 90
2
 70
0
 10
29.401821
 20
33.602083
 30
0.0
 10
25.761593
 20
33.602083
 30
0.0
  0
LWPOLYLINE
  5
124
100
AcDbEntity
  8
Gates
 62
7
100
AcDbPolyline
 90
1
 70
1
 10
25.761593
 20
38.082360
 30
0.0
  0
LWPOLYLINE
  5
125
100
AcDbEntity
  8
Gates
 62
7
100
AcDbPolyline
 90
2
 70
0
 10
22.401385
 20
36.962290
 30
0.0
 10
26.321628
 20
36.962290
 30
0.0
  0
LWPOLYLINE
  5
126
100
AcDbEntity
  8
Gates
 62
7
100
AcDbPolyline
 90
2
 70
0
 10
22.401385
 20
34.722151
 30
0.0
 10
26.321628
 20
34.722151
 30
0.0
  0
LWPOLYLINE
  5
127
100
AcDbEntity
  8
Gates
 62
7
100
AcDbPolyline
 90
2
 70
0
 10
31.641961
 20
35.842221
 30
0.0
 10
35.562202
 20
35.842221
 30
0.0
  0
SPLINE
  5
128
100
AcDbEntity
  8
Gates
 62
7
100
AcDbSpline
 70
8
 71
3
 72
8
 73
4
 74
0
 40
0
 40
0
 40
0
 40
0
 40
1
 40
1
 40
1
 40
1
 10
45.922845
 20
38.082361
 30
0.0
 10
46.762898
 20
38.082361
 30
0.0
 10
48.162985
 20
37.522325
 30
0.0
 10
48.162983
 20
35.842221
 30
0.0
  0
SPLINE
  5
129
100
AcDbEntity
  8
Gates
 62
7
100
AcDbSpline
 70
8
 71
3
 72
8
 73
4
 74
0
 40
0
 40
0
 40
0
 40
0
 40
1
 40
1
 40
1
 40
1
 10
48.162983
 20
35.842221
 30
0.0
 10
48.162985
 20
34.162109
 30
0.0
 10
46.762898
 20
33.602076
 30
0.0
 10
45.922845
 20
33.602076
 30
0.0
  0
LWPOLYLINE
  5
12a
100
AcDbEntity
  8
Gates
 62
7
100
AcDbPolyline
 90
2
 70
0
 10
42.282621
 20
38.082361
 30
0.0
 10
45.922845
 20
38.082361
 30
0.0
  0
LWPOLYLINE
  5
12b
100
AcDbEntity
  8
Gates
 62
7
100
AcDbPolyline
 90
3
 70
0
 10
45.922845
 20
33.602076
 30
0.0
 10
42.282621
 20
33.602076
 30
0.0
 10
42.282621
 20
38.082361
 30
0.0
  0
LWPOLYLINE
  5
12c
100
AcDbEntity
  8
Gates
 62
7
100
AcDbPolyline
 90
2
 70
0
 10
38.362377
 20
36.962292
 30
0.0
 10
42.282621
 20
36.962292
 30
0.0
  0
LWPOLYLINE
  5
12d
100
AcDbEntity
  8
Gates
 62
7
100
AcDbPolyline
 90
2
 70
0
 10
38.362377
 20
34.722152
 30
0.0
 10
42.282621
 20
34.722152
 30
0.0
  0
LWPOLYLINE
  5
12e
100
AcDbEntity
  8
Gates
 62
7
100
AcDbPolyline
 90
2
 70
0
 10
48.162985
 20
35.842221
 30
0.0
 10
52.083227
 20
35.842221
 30
0.0
  0
SPLINE
  5
12f
100
AcDbEntity
  8
Gates
 62
7
100
AcDbSpline
 70
8
 71
3
 72
8
 73
4
 74
0
 40
0
 40
0
 40
0
 40
0
 40
1
 40
1
 40
1
 40
1
 10
29.121804
 20
21.841355
 30
0.0
 10
29.961856
 20
21.841355
 30
0.0
 10
31.361943
 20
21.281320
 30
0.0
 10
31.361941
 20
19.601216
 30
0.0
  0
SPLINE
  5
130
100
AcDbEntity
  8
Gates
 62
7
100
AcDbSpline
 70
8
 71
3
 72
8
 73
4
 74
0
 40
0
 40
0
 40
0
 40
0
 40
1
 40
1
 40
1
 40
1
 10
31.361941
 20
19.601216
 30
0.0
 10
31.361943
 20
18.201129
 30
0.0
 10
29.961856
 20
17.361077
 30
0.0
 10
29.121804
 20
17.361078
 30
0.0
  0
LWPOLYLINE
  5
131
100
AcDbEntity
  8
Gates
 62
7
100
AcDbPolyline
 90
2
 70
0
 10
25.481576
 20
21.841355
 30
0.0
 10
29.121804
 20
21.841355
 30
0.0
  0
SPLINE
  5
132
100
AcDbEntity
  8
Gates
 62
7
100
AcDbSpline
 70
8
 71
3
 72
8
 73
4
 74
0
 40
0
 40
0
 40
0
 40
0
 40
1
 40
1
 40
1
 40
1
 10
25.481576
 20
17.361078
 30
0.0
 10
26.041611
 20
18.201129
 30
0.0
 10
26.041611
 20
18.201129
 30
0.0
 10
26.041611
 20
19.601216
 30
0.0
  0
SPLINE
  5
133
100
AcDbEntity
  8
Gates
 62
7
100
AcDbSpline
 70
8
 71
3
 72
8
 73
4
 74
0
 40
0
 40
0
 40
0
 40
0
 40
1
 40
1
 40
1
 40
1
 10
26.041611
 20
19.601216
 30
0.0
 10
26.041611
 20
21.001303
 30
0.0
 10
26.041611
 20
21.001303
 30
0.0
 10
25.481576
 20
21.841355
 30
0.0
  0
LWPOLYLINE
  5
134
100
AcDbEntity
  8
Gates
 62
7
100
AcDbPolyline
 90
2
 70
0
 10
29.121804
 20
17.361078
 30
0.0
 10
25.481576
 20
17.361078
 30
0.0
  0
LWPOLYLINE
  5
135
100
AcDbEntity
  8
Gates
 62
7
100
AcDbPolyline
 90
1
 70
1
 10
25.481576
 20
21.841355
 30
0.0
  0
LWPOLYLINE
  5
136
100
AcDbEntity
  8
Gates
 62
7
100
AcDbPolyline
 90
2
 70
0
 10
22.121368
 20
20.721285
 30
0.0
 10
26.041611
 20
20.721285
 30
0.0
  0
LWPOLYLINE
  5
137
100
AcDbEntity
  8
Gates
 62
7
100
AcDbPolyline
 90
2
 70
0
 10
22.121368
 20
18.481146
 30
0.0
 10
26.041611
 20
18.481146
 30
0.0
  0
LWPOLYLINE
  5
138
100
AcDbEntity
  8
Gates
 62
7
100
AcDbPolyline
 90
2
 70
0
 10
31.361943
 20
19.601216
 30
0.0
 10
35.282185
 20
19.601216
 30
0.0
  0
SPLINE
  5
139
100
AcDbEntity
  8
Gates
 62
7
100
AcDbSpline
 70
8
 71
3
 72
8
 73
4
 74
0
 40
0
 40
0
 40
0
 40
0
 40
1
 40
1
 40
1
 40
1
 10
29.121804
 20
27.161684
 30
0.0
 10
29.961856
 20
27.161684
 30
0.0
 10
31.361943
 20
26.601650
 30
0.0
 10
31.361941
 20
24.921545
 30
0.0
  0
SPLINE
  5
13a
100
AcDbEntity
  8
Gates
 62
7
100
AcDbSpline
 70
8
 71
3
 72
8
 73
4
 74
0
 40
0
 40
0
 40
0
 40
0
 40
1
 40
1
 40
1
 40
1
 10
31.361941
 20
24.921545
 30
0.0
 10
31.361943
 20
23.521459
 30
0.0
 10
29.961856
 20
22.681407
 30
0.0
 10
29.121804
 20
22.681407
 30
0.0
  0
LWPOLYLINE
  5
13b
100
AcDbEntity
  8
Gates
 62
7
100
AcDbPolyline
 90
2
 70
0
 10
25.481576
 20
27.161684
 30
0.0
 10
29.121804
 20
27.161684
 30
0.0
  0
SPLINE
  5
13c
100
AcDbEntity
  8
Gates
 62
7
100
AcDbSpline
 70
8
 71
3
 72
8
 73
4
 74
0
 40
0
 40
0
 40
0
 40
0
 40
1
 40
1
 40
1
 40
1
 10
25.481576
 20
22.681407
 30
0.0
 10
26.041611
 20
23.521459
 30
0.0
 10
26.041611
 20
23.521459
 30
0.0
 10
26.041611
 20
24.921545
 30
0.0
  0
SPLINE
  5
13d
100
AcDbEntity
  8
Gates
 62
7
100
AcDbSpline
 70
8
 71
3
 72
8
 73
4
 74
0
 40
0
 40
0
 40
0
 40
0
 40
1
 40
1
 40
1
 40
1
 10
26.041611
 20
24.921545
 30
0.0
 10
26.041611
 20
26.321632
 30
0.0
 10
26.041611
 20
26.321632
 30
0.0
 10
25.481576
 20
27.161684
 30
0.0
  0
LWPOLYLINE
  5
13e
100
AcDbEntity
  8
Gates
 62
7
100
AcDbPolyline
 90
2
 70
0
 10
29.121804
 20
22.681407
 30
0.0
 10
25.481576
 20
22.681407
 30
0.0
  0
LWPOLYLINE
  5
13f
100
AcDbEntity
  8
Gates
 62
7
100
AcDbPolyline
 90
1
 70
1
 10
25.481576
 20
27.161684
 30
0.0
  0
LWPOLYLINE
  5
140
100
AcDbEntity
  8
Gates
 62
7
100
AcDbPolyline
 90
2
 70
0
 10
22.121368
 20
26.041615
 30
0.0
 10
26.041611
 20
26.041615
 30
0.0
  0
LWPOLYLINE
  5
141
100
AcDbEntity
  8
Gates
 62
7
100
AcDbPolyline
 90
2
 70
0
 10
22.121368
 20
23.801476
 30
0.0
 10
26.041611
 20
23.801476
 30
0.0
  0
LWPOLYLINE
  5
142
100
AcDbEntity
  8
Gates
 62
7
100
AcDbPolyline
 90
2
 70
0
 10
31.361943
 20
24.921545
 30
0.0
 10
35.282185
 20
24.921545
 30
0.0
  0
SPLINE
  5
143
100
AcDbEntity
  8
Gates
 62
7
100
AcDbSpline
 70
8
 71
3
 72
8
 73
4
 74
0
 40
0
 40
0
 40
0
 40
0
 40
1
 40
1
 40
1
 40
1
 10
29.121804
 20
11.200695
 30
0.0
 10
29.961856
 20
11.200695
 30
0.0
 10
31.361943
 20
10.640660
 30
0.0
 10
31.361941
 20
8.960556
 30
0.0
  0
SPLINE
  5
144
100
AcDbEntity
  8
Gates
 62
7
100
AcDbSpline
 70
8
 71
3
 72
8
 73
4
 74
0
 40
0
 40
0
 40
0
 40
0
 40
1
 40
1
 40
1
 40
1
 10
31.361941
 20
8.960556
 30
0.0
 10
31.361943
 20
7.560469
 30
0.0
 10
29.961856
 20
6.720417
 30
0.0
 10
29.121804
 20
6.720418
 30
0.0
  0
LWPOLYLINE
  5
145
100
AcDbEntity
  8
Gates
 62
7
100
AcDbPolyline
 90
2
 70
0
 10
25.481576
 20
11.200695
 30
0.0
 10
29.121804
 20
11.200695
 30
0.0
  0
SPLINE
  5
146
100
AcDbEntity
  8
Gates
 62
7
100
AcDbSpline
 70
8
 71
3
 72
8
 73
4
 74
0
 40
0
 40
0
 40
0
 40
0
 40
1
 40
1
 40
1
 40
1
 10
25.481576
 20
6.720418
 30
0.0
 10
26.041611
 20
7.560469
 30
0.0
 10
26.041611
 20
7.560469
 30
0.0
 10
26.041611
 20
8.960556
 30
0.0
  0
SPLINE
  5
147
100
AcDbEntity
  8
Gates
 62
7
100
AcDbSpline
 70
8
 71
3
 72
8
 73
4
 74
0
 40
0
 40
0
 40
0
 40
0
 40
1
 40
1
 40
1
 40
1
 10
26.041611
 20
8.960556
 30
0.0
 10
26.041611
 20
10.360643
 30
0.0
 10
26.041611
 20
10.360643
 30
0.0
 10
25.481576
 20
11.200695
 30
0.0
  0
LWPOLYLINE
  5
148
100
AcDbEntity
  8
Gates
 62
7
100
AcDbPolyline
 90
2
 70
0
 10
29.121804
 20
6.720418
 30
0.0
 10
25.481576
 20
6.720418
 30
0.0
  0
LWPOLYLINE
  5
149
100
AcDbEntity
  8
Gates
 62
7
100
AcDbPolyline
 90
1
 70
1
 10
25.481576
 20
11.200695
 30
0.0
  0
LWPOLYLINE
  5
14a
100
AcDbEntity
  8
Gates
 62
7
100
AcDbPolyline
 90
2
 70
0
 10
22.121368
 20
10.080625
 30
0.0
 10
26.041611
 20
10.080625
 30
0.0
  0
LWPOLYLINE
  5
14b
100
AcDbEntity
  8
Gates
 62
7
100
AcDbPolyline
 90
2
 70
0
 10
22.121368
 20
7.840486
 30
0.0
 10
26.041611
 20
7.840486
 30
0.0
  0
LWPOLYLINE
  5
14c
100
AcDbEntity
  8
Gates
 62
7
100
AcDbPolyline
 90
2
 70
0
 10
31.361943
 20
8.960556
 30
0.0
 10
35.282185
 20
8.960556
 30
0.0
  0
SPLINE
  5
14d
100
AcDbEntity
  8
Gates
 62
7
100
AcDbSpline
 70
8
 71
3
 72
8
 73
4
 74
0
 40
0
 40
0
 40
0
 40
0
 40
1
 40
1
 40
1
 40
1
 10
29.121804
 20
16.521026
 30
0.0
 10
29.961856
 20
16.521026
 30
0.0
 10
31.361943
 20
15.960992
 30
0.0
 10
31.361941
 20
14.280888
 30
0.0
  0
SPLINE
  5
14e
100
AcDbEntity
  8
Gates
 62
7
100
AcDbSpline
 70
8
 71
3
 72
8
 73
4
 74
0
 40
0
 40
0
 40
0
 40
0
 40
1
 40
1
 40
1
 40
1
 10
31.361941
 20
14.280888
 30
0.0
 10
31.361943
 20
12.880801
 30
0.0
 10
29.961856
 20
12.040749
 30
0.0
 10
29.121804
 20
12.040749
 30
0.0
  0
LWPOLYLINE
  5
14f
100
AcDbEntity
  8
Gates
 62
7
100
AcDbPolyline
 90
2
 70
0
 10
25.481576
 20
16.521026
 30
0.0
 10
29.121804
 20
16.521026
 30
0.0
  0
SPLINE
  5
150
100
AcDbEntity
  8
Gates
 62
7
100
AcDbSpline
 70
8
 71
3
 72
8
 73
4
 74
0
 40
0
 40
0
 40
0
 40
0
 40
1
 40
1
 40
1
 40
1
 10
25.481576
 20
12.040749
 30
0.0
 10
26.041611
 20
12.880801
 30
0.0
 10
26.041611
 20
12.880801
 30
0.0
 10
26.041611
 20
14.280888
 30
0.0
  0
SPLINE
  5
151
100
AcDbEntity
  8
Gates
 62
7
100
AcDbSpline
 70
8
 71
3
 72
8
 73
4
 74
0
 40
0
 40
0
 40
0
 40
0
 40
1
 40
1
 40
1
 40
1
 10
26.041611
 20
14.280888
 30
0.0
 10
26.041611
 20
15.680974
 30
0.0
 10
26.041611
 20
15.680974
 30
0.0
 10
25.481576
 20
16.521026
 30
0.0
  0
LWPOLYLINE
  5
152
100
AcDbEntity
  8
Gates
 62
7
100
AcDbPolyline
 90
2
 70
0
 10
29.121804
 20
12.040749
 30
0.0
 10
25.481576
 20
12.040749
 30
0.0
  0
LWPOLYLINE
  5
153
100
AcDbEntity
  8
Gates
 62
7
100
AcDbPolyline
 90
1
 70
1
 10
25.481576
 20
16.521026
 30
0.0
  0
LWPOLYLINE
  5
154
100
AcDbEntity
  8
Gates
 62
7
100
AcDbPolyline
 90
2
 70
0
 10
22.121368
 20
15.400957
 30
0.0
 10
26.041611
 20
15.400957
 30
0.0
  0
LWPOLYLINE
  5
155
100
AcDbEntity
  8
Gates
 62
7
100
AcDbPolyline
 90
2
 70
0
 10
22.121368
 20
13.160818
 30
0.0
 10
26.041611
 20
13.160818
 30
0.0
  0
LWPOLYLINE
  5
156
100
AcDbEntity
  8
Gates
 62
7
100
AcDbPolyline
 90
2
 70
0
 10
31.361943
 20
14.280888
 30
0.0
 10
35.282185
 20
14.280888
 30
0.0
  0
SPLINE
  5
157
100
AcDbEntity
  8
Gates
 62
7
100
AcDbSpline
 70
8
 71
3
 72
8
 73
4
 74
0
 40
0
 40
0
 40
0
 40
0
 40
1
 40
1
 40
1
 40
1
 10
46.202862
 20
27.161683
 30
0.0
 10
47.042914
 20
27.161683
 30
0.0
 10
48.443002
 20
26.601648
 30
0.0
 10
48.442999
 20
24.921543
 30
0.0
  0
SPLINE
  5
158
100
AcDbEntity
  8
Gates
 62
7
100
AcDbSpline
 70
8
 71
3
 72
8
 73
4
 74
0
 40
0
 40
0
 40
0
 40
0
 40
1
 40
1
 40
1
 40
1
 10
48.442999
 20
24.921543
 30
0.0
 10
48.443002
 20
23.241431
 30
0.0
 10
47.042914
 20
22.681398
 30
0.0
 10
46.202862
 20
22.681398
 30
0.0
  0
LWPOLYLINE
  5
159
100
AcDbEntity
  8
Gates
 62
7
100
AcDbPolyline
 90
2
 70
0
 10
42.562638
 20
27.161683
 30
0.0
 10
46.202862
 20
27.161683
 30
0.0
  0
LWPOLYLINE
  5
15a
100
AcDbEntity
  8
Gates
 62
7
100
AcDbPolyline
 90
3
 70
0
 10
46.202862
 20
22.681398
 30
0.0
 10
42.562638
 20
22.681398
 30
0.0
 10
42.562638
 20
27.161683
 30
0.0
  0
LWPOLYLINE
  5
15b
100
AcDbEntity
  8
Gates
 62
7
100
AcDbPolyline
 90
2
 70
0
 10
38.642394
 20
26.041615
 30
0.0
 10
42.562638
 20
26.041615
 30
0.0
  0
LWPOLYLINE
  5
15c
100
AcDbEntity
  8
Gates
 62
7
100
AcDbPolyline
 90
2
 70
0
 10
38.642394
 20
23.801475
 30
0.0
 10
42.562638
 20
23.801475
 30
0.0
  0
LWPOLYLINE
  5
15d
100
AcDbEntity
  8
Gates
 62
7
100
AcDbPolyline
 90
2
 70
0
 10
48.443002
 20
24.921543
 30
0.0
 10
52.363243
 20
24.921543
 30
0.0
  0
SPLINE
  5
15e
100
AcDbEntity
  8
Gates
 62
7
100
AcDbSpline
 70
8
 71
3
 72
8
 73
4
 74
0
 40
0
 40
0
 40
0
 40
0
 40
1
 40
1
 40
1
 40
1
 10
46.202862
 20
21.841354
 30
0.0
 10
47.042914
 20
21.841354
 30
0.0
 10
48.443002
 20
21.281319
 30
0.0
 10
48.442999
 20
19.601215
 30
0.0
  0
SPLINE
  5
15f
100
AcDbEntity
  8
Gates
 62
7
100
AcDbSpline
 70
8
 71
3
 72
8
 73
4
 74
0
 40
0
 40
0
 40
0
 40
0
 40
1
 40
1
 40
1
 40
1
 10
48.442999
 20
19.601215
 30
0.0
 10
48.443002
 20
17.921103
 30
0.0
 10
47.042914
 20
17.361070
 30
0.0
 10
46.202862
 20
17.361070
 30
0.0
  0
LWPOLYLINE
  5
160
100
AcDbEntity
  8
Gates
 62
7
100
AcDbPolyline
 90
2
 70
0
 10
42.562637
 20
21.841354
 30
0.0
 10
46.202862
 20
21.841354
 30
0.0
  0
LWPOLYLINE
  5
161
100
AcDbEntity
  8
Gates
 62
7
100
AcDbPolyline
 90
3
 70
0
 10
46.202862
 20
17.361070
 30
0.0
 10
42.562637
 20
17.361070
 30
0.0
 10
42.562637
 20
21.841354
 30
0.0
  0
LWPOLYLINE
  5
162
100
AcDbEntity
  8
Gates
 62
7
100
AcDbPolyline
 90
2
 70
0
 10
38.642393
 20
20.721286
 30
0.0
 10
42.562637
 20
20.721286
 30
0.0
  0
LWPOLYLINE
  5
163
100
AcDbEntity
  8
Gates
 62
7
100
AcDbPolyline
 90
2
 70
0
 10
38.642393
 20
18.481146
 30
0.0
 10
42.562637
 20
18.481146
 30
0.0
  0
LWPOLYLINE
  5
164
100
AcDbEntity
  8
Gates
 62
7
100
AcDbPolyline
 90
2
 70
0
 10
48.443002
 20
19.601215
 30
0.0
 10
52.363243
 20
19.601215
 30
0.0
  0
SPLINE
  5
165
100
AcDbEntity
  8
Gates
 62
7
100
AcDbSpline
 70
8
 71
3
 72
8
 73
4
 74
0
 40
0
 40
0
 40
0
 40
0
 40
1
 40
1
 40
1
 40
1
 10
46.202862
 20
16.521025
 30
0.0
 10
47.042914
 20
16.521025
 30
0.0
 10
48.443002
 20
15.960989
 30
0.0
 10
48.442999
 20
14.280885
 30
0.0
  0
SPLINE
  5
166
100
AcDbEntity
  8
Gates
 62
7
100
AcDbSpline
 70
8
 71
3
 72
8
 73
4
 74
0
 40
0
 40
0
 40
0
 40
0
 40
1
 40
1
 40
1
 40
1
 10
48.442999
 20
14.280885
 30
0.0
 10
48.443002
 20
12.600773
 30
0.0
 10
47.042914
 20
12.040740
 30
0.0
 10
46.202862
 20
12.040740
 30
0.0
  0
LWPOLYLINE
  5
167
100
AcDbEntity
  8
Gates
 62
7
100
AcDbPolyline
 90
2
 70
0
 10
42.562637
 20
16.521025
 30
0.0
 10
46.202862
 20
16.521025
 30
0.0
  0
LWPOLYLINE
  5
168
100
AcDbEntity
  8
Gates
 62
7
100
AcDbPolyline
 90
3
 70
0
 10
46.202862
 20
12.040740
 30
0.0
 10
42.562637
 20
12.040740
 30
0.0
 10
42.562637
 20
16.521025
 30
0.0
  0
LWPOLYLINE
  5
169
100
AcDbEntity
  8
Gates
 62
7
100
AcDbPolyline
 90
2
 70
0
 10
38.642393
 20
15.400956
 30
0.0
 10
42.562637
 20
15.400956
 30
0.0
  0
LWPOLYLINE
  5
16a
100
AcDbEntity
  8
Gates
 62
7
100
AcDbPolyline
 90
2
 70
0
 10
38.642393
 20
13.160816
 30
0.0
 10
42.562637
 20
13.160816
 30
0.0
  0
LWPOLYLINE
  5
16b
100
AcDbEntity
  8
Gates
 62
7
100
AcDbPolyline
 90
2
 70
0
 10
48.443002
 20
14.280885
 30
0.0
 10
52.363243
 20
14.280885
 30
0.0
  0
SPLINE
  5
16c
100
AcDbEntity
  8
Gates
 62
7
100
AcDbSpline
 70
8
 71
3
 72
8
 73
4
 74
0
 40
0
 40
0
 40
0
 40
0
 40
1
 40
1
 40
1
 40
1
 10
46.202862
 20
11.200694
 30
0.0
 10
47.042914
 20
11.200694
 30
0.0
 10
48.443002
 20
10.640658
 30
0.0
 10
48.442999
 20
8.960554
 30
0.0
  0
SPLINE
  5
16d
100
AcDbEntity
  8
Gates
 62
7
100
AcDbSpline
 70
8
 71
3
 72
8
 73
4
 74
0
 40
0
 40
0
 40
0
 40
0
 40
1
 40
1
 40
1
 40
1
 10
48.442999
 20
8.960554
 30
0.0
 10
48.443002
 20
7.280442
 30
0.0
 10
47.042914
 20
6.720409
 30
0.0
 10
46.202862
 20
6.720409
 30
0.0
  0
LWPOLYLINE
  5
16e
100
AcDbEntity
  8
Gates
 62
7
100
AcDbPolyline
 90
2
 70
0
 10
42.562637
 20
11.200694
 30
0.0
 10
46.202862
 20
11.200694
 30
0.0
  0
LWPOLYLINE
  5
16f
100
AcDbEntity
  8
Gates
 62
7
100
AcDbPolyline
 90
3
 70
0
 10
46.202862
 20
6.720409
 30
0.0
 10
42.562637
 20
6.720409
 30
0.0
 10
42.562637
 20
11.200694
 30
0.0
  0
LWPOLYLINE
  5
170
100
AcDbEntity
  8
Gates
 62
7
100
AcDbPolyline
 90
2
 70
0
 10
38.642393
 20
10.080626
 30
0.0
 10
42.562637
 20
10.080626
 30
0.0
  0
LWPOLYLINE
  5
171
100
AcDbEntity
  8
Gates
 62
7
100
AcDbPolyline
 90
2
 70
0
 10
38.642393
 20
7.840486
 30
0.0
 10
42.562637
 20
7.840486
 30
0.0
  0
SPLINE
  5
172
100
AcDbEntity
  8
Gates
 62
1
100
AcDbSpline
 70
8
 71
3
 72
8
 73
4
 74
0
 40
0
 40
0
 40
0
 40
0
 40
1
 40
1
 40
1
 40
1
 10
13.440833
 20
38.362377
 30
0.0
 10
12.849475
 20
38.629780
 30
0.0
 10
12.372605
 20
37.543971
 30
0.0
 10
12.320763
 20
36.710636
 30
0.0
  0
LWPOLYLINE
  5
173
100
AcDbEntity
  8
Gates
 62
7
100
AcDbPolyline
 90
2
 70
0
 10
48.443002
 20
8.960554
 30
0.0
 10
52.363243
 20
8.960554
 30
0.0
  0
LWPOLYLINE
  5
174
100
AcDbEntity
  8
Gates
 62
1
100
AcDbPolyline
 90
5
 70
1
 10
12.320763
 20
36.710636
 30
0.0
 10
12.320763
 20
36.710636
 30
0.0
 10
12.600781
 20
36.843555
 30
0.0
 10
12.040746
 20
36.962291
 30
0.0
 10
12.320763
 20
36.710636
 30
0.0
  0
ENDSEC
  0
SECTION
  2
OBJECTS
  0
DICTIONARY
  5
C
330
0
100
AcDbDictionary
  3
ACAD_GROUP
350
D
  3
ACAD_MLINESTYLE
350
17
  0
DICTIONARY
  5
D
330
C
100
AcDbDictionary
  0
DICTIONARY
  5
1A
330
C
100
AcDbDictionary
  0
DICTIONARY
  5
17
330
C
100
AcDbDictionary
  3
STANDARD
350
18
  0
DICTIONARY
  5
19
330
C
100
AcDbDictionary
  0
ENDSEC
  0
EOF
